# MagicaVoxel @ Ephtracy

# group
o 

# material
mtllib sueloPlataform-5.mtl
usemtl palette

# normals
vn -1 0 0
vn 1 0 0
vn 0 0 1
vn 0 0 -1
vn 0 -1 0
vn 0 1 0

# texcoords
vt 0.0175781 0.5
vt 0.0214844 0.5
vt 0.0371094 0.5
vt 0.0410156 0.5

# verts
v -0.8 1.2 1.3
v -0.8 1.2 1.2
v -0.8 1.2 -0.6
v -0.8 1.2 -0.7
v -0.8 1.3 0.6
v -0.8 1.3 0.5
v -0.8 1.3 -0.0999999
v -0.8 1.3 -0.2
v -0.8 1.4 1.1
v -0.8 1.4 1
v -0.8 1.4 0.7
v -0.8 1.4 0.6
v -0.8 1.4 0.5
v -0.8 1.4 0.4
v -0.8 1.4 -0.2
v -0.8 1.4 -0.3
v -0.8 1.5 0.8
v -0.8 1.5 0.7
v -0.8 1.5 0.4
v -0.8 1.5 0.2
v -0.8 1.5 1.19209e-007
v -0.8 1.5 -0.0999999
v -0.8 1.5 -0.4
v -0.8 1.5 -0.5
v -0.8 1.6 1.2
v -0.8 1.6 1.1
v -0.8 1.6 1
v -0.8 1.6 0.9
v -0.8 1.6 0.2
v -0.8 1.6 1.19209e-007
v -0.8 1.6 -0.5
v -0.8 1.6 -0.6
v -0.8 1.8 0.9
v -0.8 1.8 0.8
v -0.8 1.8 -0.3
v -0.8 1.8 -0.4
v -0.8 2 1.3
v -0.8 2 -0.7
v -0.7 0 1.3
v -0.7 0 -0.7
v -0.7 0.1 0.9
v -0.7 0.1 0.8
v -0.7 0.1 0.4
v -0.7 0.1 0.2
v -0.7 0.1 0.1
v -0.7 0.1 1.19209e-007
v -0.7 0.1 -0.3
v -0.7 0.1 -0.4
v -0.7 0.2 1.2
v -0.7 0.2 1
v -0.7 0.2 0.9
v -0.7 0.2 0.8
v -0.7 0.2 0.7
v -0.7 0.2 0.6
v -0.7 0.2 0.5
v -0.7 0.2 0.4
v -0.7 0.2 0.2
v -0.7 0.2 0.1
v -0.7 0.2 1.19209e-007
v -0.7 0.2 -0.2
v -0.7 0.2 -0.3
v -0.7 0.2 -0.4
v -0.7 0.2 -0.5
v -0.7 0.2 -0.6
v -0.7 0.3 1.1
v -0.7 0.3 1
v -0.7 0.3 0.8
v -0.7 0.3 0.7
v -0.7 0.3 0.6
v -0.7 0.3 0.5
v -0.7 0.3 0.3
v -0.7 0.3 0.2
v -0.7 0.3 0.1
v -0.7 0.3 1.19209e-007
v -0.7 0.3 -0.0999999
v -0.7 0.3 -0.2
v -0.7 0.3 -0.3
v -0.7 0.3 -0.5
v -0.7 0.3 -0.6
v -0.7 0.4 1.2
v -0.7 0.4 1.1
v -0.7 0.4 0.9
v -0.7 0.4 0.8
v -0.7 0.4 0.7
v -0.7 0.4 0.6
v -0.7 0.4 0.5
v -0.7 0.4 0.4
v -0.7 0.4 0.2
v -0.7 0.4 0.1
v -0.7 0.4 1.19209e-007
v -0.7 0.4 -0.0999999
v -0.7 0.4 -0.2
v -0.7 0.4 -0.3
v -0.7 0.4 -0.5
v -0.7 0.5 1.1
v -0.7 0.5 1
v -0.7 0.5 0.7
v -0.7 0.5 0.6
v -0.7 0.5 0.5
v -0.7 0.5 0.4
v -0.7 0.5 0.3
v -0.7 0.5 1.19209e-007
v -0.7 0.5 -0.0999999
v -0.7 0.5 -0.2
v -0.7 0.5 -0.4
v -0.7 0.5 -0.5
v -0.7 0.7 1.2
v -0.7 0.7 1.1
v -0.7 0.7 1
v -0.7 0.7 0.9
v -0.7 0.7 0.8
v -0.7 0.7 0.6
v -0.7 0.7 0.5
v -0.7 0.7 0.4
v -0.7 0.7 0.2
v -0.7 0.7 0.1
v -0.7 0.7 -0.0999999
v -0.7 0.7 -0.3
v -0.7 0.7 -0.4
v -0.7 0.7 -0.5
v -0.7 0.8 1.2
v -0.7 0.8 1.1
v -0.7 0.8 0.8
v -0.7 0.8 0.7
v -0.7 0.8 0.6
v -0.7 0.8 0.5
v -0.7 0.8 0.4
v -0.7 0.8 0.2
v -0.7 0.8 0.1
v -0.7 0.8 1.19209e-007
v -0.7 0.8 -0.0999999
v -0.7 0.8 -0.3
v -0.7 0.8 -0.4
v -0.7 0.8 -0.5
v -0.7 0.8 -0.6
v -0.7 0.9 1.2
v -0.7 0.9 1.1
v -0.7 0.9 1
v -0.7 0.9 0.8
v -0.7 0.9 0.7
v -0.7 0.9 0.4
v -0.7 0.9 0.1
v -0.7 0.9 1.19209e-007
v -0.7 0.9 -0.0999999
v -0.7 0.9 -0.3
v -0.7 0.9 -0.4
v -0.7 1 1.2
v -0.7 1 1.1
v -0.7 1 1
v -0.7 1 0.9
v -0.7 1 0.7
v -0.7 1 0.6
v -0.7 1 0.5
v -0.7 1 0.4
v -0.7 1 0.2
v -0.7 1 1.19209e-007
v -0.7 1 -0.0999999
v -0.7 1 -0.2
v -0.7 1 -0.3
v -0.7 1 -0.4
v -0.7 1 -0.5
v -0.7 1 -0.6
v -0.7 1.1 1
v -0.7 1.1 0.9
v -0.7 1.1 0.8
v -0.7 1.1 0.7
v -0.7 1.1 0.6
v -0.7 1.1 0.5
v -0.7 1.1 0.3
v -0.7 1.1 0.2
v -0.7 1.1 0.1
v -0.7 1.1 1.19209e-007
v -0.7 1.1 -0.0999999
v -0.7 1.1 -0.2
v -0.7 1.1 -0.3
v -0.7 1.2 1.3
v -0.7 1.2 1.2
v -0.7 1.2 1
v -0.7 1.2 0.9
v -0.7 1.2 0.6
v -0.7 1.2 0.5
v -0.7 1.2 0.3
v -0.7 1.2 0.2
v -0.7 1.2 1.19209e-007
v -0.7 1.2 -0.0999999
v -0.7 1.2 -0.6
v -0.7 1.2 -0.7
v -0.7 1.3 0.7
v -0.7 1.3 0.6
v -0.7 1.3 0.5
v -0.7 1.3 0.4
v -0.7 1.3 -0.0999999
v -0.7 1.3 -0.2
v -0.7 1.3 -0.3
v -0.7 1.4 1.1
v -0.7 1.4 1
v -0.7 1.4 0.8
v -0.7 1.4 0.7
v -0.7 1.4 0.6
v -0.7 1.4 0.5
v -0.7 1.4 0.4
v -0.7 1.4 0.2
v -0.7 1.4 1.19209e-007
v -0.7 1.4 -0.0999999
v -0.7 1.4 -0.2
v -0.7 1.4 -0.3
v -0.7 1.5 1.2
v -0.7 1.5 1.1
v -0.7 1.5 1
v -0.7 1.5 0.9
v -0.7 1.5 0.8
v -0.7 1.5 0.7
v -0.7 1.5 0.4
v -0.7 1.5 0.2
v -0.7 1.5 1.19209e-007
v -0.7 1.5 -0.0999999
v -0.7 1.5 -0.4
v -0.7 1.5 -0.5
v -0.7 1.5 -0.6
v -0.7 1.6 1.2
v -0.7 1.6 1.1
v -0.7 1.6 1
v -0.7 1.6 0.9
v -0.7 1.6 0.8
v -0.7 1.6 0.2
v -0.7 1.6 1.19209e-007
v -0.7 1.6 -0.3
v -0.7 1.6 -0.4
v -0.7 1.6 -0.5
v -0.7 1.6 -0.6
v -0.7 1.8 0.9
v -0.7 1.8 0.8
v -0.7 1.8 -0.3
v -0.7 1.8 -0.4
v 0.8 0 1.3
v 0.8 0 -0.7
v 0.8 1.8 1.3
v 0.8 1.8 1
v 0.8 1.8 -0.4
v 0.8 1.8 -0.7
v 0.8 1.9 1
v 0.8 1.9 -0.4
v 0.8 2 1.3
v 0.8 2 -0.7
v -0.8 1.2 1.3
v -0.8 2 1.3
v -0.7 0 1.3
v -0.7 1.2 1.3
v -0.7 1.8 1.3
v 0.8 0 1.3
v 0.8 1.8 1.3
v 0.8 2 1.3
v -0.8 1.4 1.1
v -0.8 1.6 1.1
v -0.7 1.4 1.1
v -0.7 1.5 1.1
v -0.7 1.6 1.1
v -0.8 1.5 0.8
v -0.8 1.8 0.8
v -0.7 1.5 0.8
v -0.7 1.6 0.8
v -0.7 1.8 0.8
v -0.8 1.4 0.7
v -0.8 1.5 0.7
v -0.7 1.4 0.7
v -0.7 1.5 0.7
v -0.8 1.3 0.6
v -0.8 1.4 0.6
v -0.7 1.3 0.6
v -0.7 1.4 0.6
v -0.8 1.5 1.19209e-007
v -0.8 1.6 1.19209e-007
v -0.7 1.5 1.19209e-007
v -0.7 1.6 1.19209e-007
v -0.8 1.3 -0.0999999
v -0.8 1.5 -0.0999999
v -0.7 1.3 -0.0999999
v -0.7 1.4 -0.0999999
v -0.7 1.5 -0.0999999
v -0.8 1.5 -0.4
v -0.8 1.8 -0.4
v -0.7 1.5 -0.4
v -0.7 1.6 -0.4
v -0.7 1.8 -0.4
v -0.8 1.2 -0.6
v -0.8 1.6 -0.6
v -0.7 1.2 -0.6
v -0.7 1.5 -0.6
v -0.7 1.6 -0.6
v -0.8 1.2 1.2
v -0.8 1.6 1.2
v -0.7 1.2 1.2
v -0.7 1.5 1.2
v -0.7 1.6 1.2
v -0.8 1.4 1
v -0.8 1.6 1
v -0.7 1.4 1
v -0.7 1.5 1
v -0.7 1.6 1
v -0.8 1.6 0.9
v -0.8 1.8 0.9
v -0.7 1.6 0.9
v -0.7 1.8 0.9
v -0.8 1.3 0.5
v -0.8 1.4 0.5
v -0.7 1.3 0.5
v -0.7 1.4 0.5
v -0.8 1.4 0.4
v -0.8 1.5 0.4
v -0.7 1.4 0.4
v -0.7 1.5 0.4
v -0.8 1.5 0.2
v -0.8 1.6 0.2
v -0.7 1.5 0.2
v -0.7 1.6 0.2
v -0.8 1.3 -0.2
v -0.8 1.4 -0.2
v -0.7 1.3 -0.2
v -0.7 1.4 -0.2
v -0.8 1.4 -0.3
v -0.8 1.8 -0.3
v -0.7 1.4 -0.3
v -0.7 1.6 -0.3
v -0.7 1.8 -0.3
v -0.8 1.5 -0.5
v -0.8 1.6 -0.5
v -0.7 1.5 -0.5
v -0.7 1.6 -0.5
v -0.8 1.2 -0.7
v -0.8 2 -0.7
v -0.7 0 -0.7
v -0.7 1.2 -0.7
v -0.7 1.8 -0.7
v 0.8 0 -0.7
v 0.8 1.8 -0.7
v 0.8 2 -0.7
v -0.7 0 1.3
v 0.8 0 1.3
v -0.7 0 -0.7
v 0.8 0 -0.7
v -0.8 1.2 1.3
v -0.7 1.2 1.3
v -0.8 1.2 1.2
v -0.7 1.2 1.2
v -0.8 1.2 -0.6
v -0.7 1.2 -0.6
v -0.8 1.2 -0.7
v -0.7 1.2 -0.7
v -0.8 1.3 0.6
v -0.7 1.3 0.6
v -0.8 1.3 0.5
v -0.7 1.3 0.5
v -0.8 1.3 -0.0999999
v -0.7 1.3 -0.0999999
v -0.8 1.3 -0.2
v -0.7 1.3 -0.2
v -0.8 1.4 1.1
v -0.7 1.4 1.1
v -0.8 1.4 1
v -0.7 1.4 1
v -0.8 1.4 0.7
v -0.7 1.4 0.7
v -0.8 1.4 0.6
v -0.7 1.4 0.6
v -0.8 1.4 0.5
v -0.7 1.4 0.5
v -0.8 1.4 0.4
v -0.7 1.4 0.4
v -0.8 1.4 -0.2
v -0.7 1.4 -0.2
v -0.8 1.4 -0.3
v -0.7 1.4 -0.3
v -0.8 1.5 0.8
v -0.7 1.5 0.8
v -0.8 1.5 0.7
v -0.7 1.5 0.7
v -0.8 1.5 0.4
v -0.7 1.5 0.4
v -0.8 1.5 0.2
v -0.7 1.5 0.2
v -0.8 1.5 1.19209e-007
v -0.7 1.5 1.19209e-007
v -0.8 1.5 -0.0999999
v -0.7 1.5 -0.0999999
v -0.8 1.5 -0.4
v -0.7 1.5 -0.4
v -0.8 1.5 -0.5
v -0.7 1.5 -0.5
v -0.8 1.6 1.2
v -0.7 1.6 1.2
v -0.8 1.6 1.1
v -0.7 1.6 1.1
v -0.8 1.6 1
v -0.7 1.6 1
v -0.8 1.6 0.9
v -0.7 1.6 0.9
v -0.8 1.6 0.2
v -0.7 1.6 0.2
v -0.8 1.6 1.19209e-007
v -0.7 1.6 1.19209e-007
v -0.8 1.6 -0.5
v -0.7 1.6 -0.5
v -0.8 1.6 -0.6
v -0.7 1.6 -0.6
v -0.8 1.8 0.9
v -0.7 1.8 0.9
v -0.8 1.8 0.8
v -0.7 1.8 0.8
v -0.8 1.8 -0.3
v -0.7 1.8 -0.3
v -0.8 1.8 -0.4
v -0.7 1.8 -0.4
v -0.8 2 1.3
v 0.8 2 1.3
v -0.8 2 -0.7
v 0.8 2 -0.7

# faces
f 12/4/1 6/4/1 5/4/1
f 13/4/1 6/4/1 12/4/1
f 15/4/1 8/4/1 7/4/1
f 18/4/1 14/4/1 13/4/1
f 18/4/1 12/4/1 11/4/1
f 18/4/1 13/4/1 12/4/1
f 19/4/1 14/4/1 18/4/1
f 22/4/1 16/4/1 15/4/1
f 22/4/1 15/4/1 7/4/1
f 25/4/1 2/4/1 1/4/1
f 26/4/1 10/4/1 9/4/1
f 27/4/1 10/4/1 26/4/1
f 29/4/1 20/4/1 19/4/1
f 29/4/1 19/4/1 18/4/1
f 29/4/1 18/4/1 17/4/1
f 30/4/1 22/4/1 21/4/1
f 31/4/1 24/4/1 23/4/1
f 32/4/1 4/4/1 3/4/1
f 33/4/1 28/4/1 27/4/1
f 33/4/1 27/4/1 26/4/1
f 33/4/1 26/4/1 25/4/1
f 34/4/1 30/4/1 29/4/1
f 34/4/1 29/4/1 17/4/1
f 35/4/1 16/4/1 22/4/1
f 35/4/1 22/4/1 30/4/1
f 35/4/1 30/4/1 34/4/1
f 36/4/1 31/4/1 23/4/1
f 36/4/1 32/4/1 31/4/1
f 37/4/1 33/4/1 25/4/1
f 37/4/1 36/4/1 35/4/1
f 37/4/1 35/4/1 34/4/1
f 37/4/1 25/4/1 1/4/1
f 37/4/1 34/4/1 33/4/1
f 38/4/1 32/4/1 36/4/1
f 38/4/1 36/4/1 37/4/1
f 38/4/1 4/4/1 32/4/1
f 41/2/1 40/2/1 39/2/1
f 42/2/1 40/2/1 41/2/1
f 43/2/1 40/2/1 42/2/1
f 44/2/1 40/2/1 43/2/1
f 45/2/1 40/2/1 44/2/1
f 46/2/1 40/2/1 45/2/1
f 47/2/1 40/2/1 46/2/1
f 48/2/1 40/2/1 47/2/1
f 49/2/1 41/2/1 39/2/1
f 50/2/1 41/2/1 49/2/1
f 51/1/1 42/1/1 41/1/1
f 51/2/1 41/2/1 50/2/1
f 52/2/1 43/2/1 42/2/1
f 52/1/1 42/1/1 51/1/1
f 53/2/1 43/2/1 52/2/1
f 54/2/1 43/2/1 53/2/1
f 55/2/1 43/2/1 54/2/1
f 56/1/1 44/1/1 43/1/1
f 56/2/1 43/2/1 55/2/1
f 57/2/1 45/2/1 44/2/1
f 57/1/1 44/1/1 56/1/1
f 58/1/1 46/1/1 45/1/1
f 58/2/1 45/2/1 57/2/1
f 59/2/1 47/2/1 46/2/1
f 59/1/1 46/1/1 58/1/1
f 60/2/1 47/2/1 59/2/1
f 61/1/1 48/1/1 47/1/1
f 61/2/1 47/2/1 60/2/1
f 62/2/1 40/2/1 48/2/1
f 62/1/1 48/1/1 61/1/1
f 63/2/1 40/2/1 62/2/1
f 64/2/1 40/2/1 63/2/1
f 65/1/1 50/1/1 49/1/1
f 66/2/1 51/2/1 50/2/1
f 66/1/1 50/1/1 65/1/1
f 66/2/1 52/2/1 51/2/1
f 67/1/1 53/1/1 52/1/1
f 67/2/1 52/2/1 66/2/1
f 68/2/1 54/2/1 53/2/1
f 68/1/1 53/1/1 67/1/1
f 69/1/1 55/1/1 54/1/1
f 69/2/1 54/2/1 68/2/1
f 70/2/1 56/2/1 55/2/1
f 70/1/1 55/1/1 69/1/1
f 70/2/1 57/2/1 56/2/1
f 70/2/1 58/2/1 57/2/1
f 70/2/1 60/2/1 59/2/1
f 70/2/1 59/2/1 58/2/1
f 71/2/1 60/2/1 70/2/1
f 72/2/1 60/2/1 71/2/1
f 73/2/1 60/2/1 72/2/1
f 74/2/1 60/2/1 73/2/1
f 75/2/1 60/2/1 74/2/1
f 76/1/1 61/1/1 60/1/1
f 76/2/1 60/2/1 75/2/1
f 77/2/1 63/2/1 62/2/1
f 77/1/1 61/1/1 76/1/1
f 77/2/1 62/2/1 61/2/1
f 78/1/1 64/1/1 63/1/1
f 78/2/1 63/2/1 77/2/1
f 79/2/1 40/2/1 64/2/1
f 79/1/1 64/1/1 78/1/1
f 80/1/1 65/1/1 49/1/1
f 80/2/1 49/2/1 39/2/1
f 81/2/1 68/2/1 67/2/1
f 81/1/1 65/1/1 80/1/1
f 81/2/1 69/2/1 68/2/1
f 81/2/1 67/2/1 66/2/1
f 81/2/1 66/2/1 65/2/1
f 81/2/1 70/2/1 69/2/1
f 82/2/1 70/2/1 81/2/1
f 83/2/1 70/2/1 82/2/1
f 84/2/1 70/2/1 83/2/1
f 85/2/1 70/2/1 84/2/1
f 86/1/1 71/1/1 70/1/1
f 86/2/1 70/2/1 85/2/1
f 87/1/1 71/1/1 86/1/1
f 88/1/1 73/1/1 72/1/1
f 88/2/1 72/2/1 71/2/1
f 89/2/1 74/2/1 73/2/1
f 89/1/1 73/1/1 88/1/1
f 90/1/1 75/1/1 74/1/1
f 90/2/1 74/2/1 89/2/1
f 91/2/1 76/2/1 75/2/1
f 91/1/1 75/1/1 90/1/1
f 91/2/1 77/2/1 76/2/1
f 92/2/1 77/2/1 91/2/1
f 93/1/1 78/1/1 77/1/1
f 93/2/1 77/2/1 92/2/1
f 94/2/1 79/2/1 78/2/1
f 94/1/1 78/1/1 93/1/1
f 95/2/1 81/2/1 80/2/1
f 95/2/1 82/2/1 81/2/1
f 96/2/1 82/2/1 95/2/1
f 97/1/1 85/1/1 84/1/1
f 97/2/1 84/2/1 83/2/1
f 98/2/1 87/2/1 86/2/1
f 98/1/1 85/1/1 97/1/1
f 98/2/1 86/2/1 85/2/1
f 99/2/1 87/2/1 98/2/1
f 100/1/1 71/1/1 87/1/1
f 100/2/1 87/2/1 99/2/1
f 101/2/1 89/2/1 88/2/1
f 101/1/1 71/1/1 100/1/1
f 101/2/1 88/2/1 71/2/1
f 102/1/1 90/1/1 89/1/1
f 102/2/1 91/2/1 90/2/1
f 103/1/1 92/1/1 91/1/1
f 103/2/1 91/2/1 102/2/1
f 104/2/1 93/2/1 92/2/1
f 104/1/1 92/1/1 103/1/1
f 104/2/1 94/2/1 93/2/1
f 105/2/1 94/2/1 104/2/1
f 106/2/1 79/2/1 94/2/1
f 106/2/1 94/2/1 105/2/1
f 107/2/1 80/2/1 39/2/1
f 107/2/1 95/2/1 80/2/1
f 108/1/1 96/1/1 95/1/1
f 108/2/1 95/2/1 107/2/1
f 109/2/1 82/2/1 96/2/1
f 109/1/1 96/1/1 108/1/1
f 110/1/1 83/1/1 82/1/1
f 110/2/1 82/2/1 109/2/1
f 111/2/1 98/2/1 97/2/1
f 111/1/1 83/1/1 110/1/1
f 111/2/1 97/2/1 83/2/1
f 112/1/1 99/1/1 98/1/1
f 112/2/1 98/2/1 111/2/1
f 113/2/1 100/2/1 99/2/1
f 113/1/1 99/1/1 112/1/1
f 113/2/1 101/2/1 100/2/1
f 114/2/1 101/2/1 113/2/1
f 115/2/1 89/2/1 101/2/1
f 115/2/1 101/2/1 114/2/1
f 116/1/1 102/1/1 89/1/1
f 116/2/1 89/2/1 115/2/1
f 116/1/1 103/1/1 102/1/1
f 117/2/1 104/2/1 103/2/1
f 117/1/1 103/1/1 116/1/1
f 117/2/1 105/2/1 104/2/1
f 118/2/1 105/2/1 117/2/1
f 119/1/1 106/1/1 105/1/1
f 119/2/1 105/2/1 118/2/1
f 120/2/1 79/2/1 106/2/1
f 120/1/1 106/1/1 119/1/1
f 121/1/1 108/1/1 107/1/1
f 121/2/1 107/2/1 39/2/1
f 122/2/1 112/2/1 111/2/1
f 122/1/1 108/1/1 121/1/1
f 122/2/1 111/2/1 110/2/1
f 122/2/1 114/2/1 113/2/1
f 122/2/1 110/2/1 109/2/1
f 122/2/1 109/2/1 108/2/1
f 122/2/1 113/2/1 112/2/1
f 123/2/1 114/2/1 122/2/1
f 124/2/1 114/2/1 123/2/1
f 125/2/1 114/2/1 124/2/1
f 126/2/1 114/2/1 125/2/1
f 127/1/1 115/1/1 114/1/1
f 127/2/1 114/2/1 126/2/1
f 128/2/1 117/2/1 116/2/1
f 128/1/1 115/1/1 127/1/1
f 128/2/1 116/2/1 115/2/1
f 128/2/1 118/2/1 117/2/1
f 129/2/1 118/2/1 128/2/1
f 130/2/1 118/2/1 129/2/1
f 131/2/1 118/2/1 130/2/1
f 132/1/1 119/1/1 118/1/1
f 132/2/1 118/2/1 131/2/1
f 133/2/1 120/2/1 119/2/1
f 133/1/1 119/1/1 132/1/1
f 134/2/1 79/2/1 120/2/1
f 134/2/1 120/2/1 133/2/1
f 135/2/1 40/2/1 79/2/1
f 135/2/1 79/2/1 134/2/1
f 136/2/1 121/2/1 39/2/1
f 136/2/1 122/2/1 121/2/1
f 136/2/1 123/2/1 122/2/1
f 137/2/1 123/2/1 136/2/1
f 138/2/1 123/2/1 137/2/1
f 139/1/1 124/1/1 123/1/1
f 139/2/1 123/2/1 138/2/1
f 140/2/1 125/2/1 124/2/1
f 140/1/1 124/1/1 139/1/1
f 141/2/1 127/2/1 126/2/1
f 141/2/1 128/2/1 127/2/1
f 141/2/1 129/2/1 128/2/1
f 142/1/1 130/1/1 129/1/1
f 142/2/1 129/2/1 141/2/1
f 143/2/1 131/2/1 130/2/1
f 143/1/1 130/1/1 142/1/1
f 144/1/1 132/1/1 131/1/1
f 144/2/1 131/2/1 143/2/1
f 145/2/1 134/2/1 133/2/1
f 145/1/1 132/1/1 144/1/1
f 145/2/1 133/2/1 132/2/1
f 146/2/1 134/2/1 145/2/1
f 147/2/1 136/2/1 39/2/1
f 147/1/1 137/1/1 136/1/1
f 148/2/1 138/2/1 137/2/1
f 148/1/1 137/1/1 147/1/1
f 149/1/1 139/1/1 138/1/1
f 149/2/1 138/2/1 148/2/1
f 150/1/1 139/1/1 149/1/1
f 151/2/1 125/2/1 140/2/1
f 151/2/1 140/2/1 139/2/1
f 152/1/1 126/1/1 125/1/1
f 152/2/1 125/2/1 151/2/1
f 153/2/1 141/2/1 126/2/1
f 153/1/1 126/1/1 152/1/1
f 154/1/1 142/1/1 141/1/1
f 154/2/1 141/2/1 153/2/1
f 155/1/1 142/1/1 154/1/1
f 156/1/1 144/1/1 143/1/1
f 156/2/1 143/2/1 142/2/1
f 157/2/1 145/2/1 144/2/1
f 157/1/1 144/1/1 156/1/1
f 158/2/1 145/2/1 157/2/1
f 159/1/1 146/1/1 145/1/1
f 159/2/1 145/2/1 158/2/1
f 160/2/1 134/2/1 146/2/1
f 160/1/1 146/1/1 159/1/1
f 161/1/1 135/1/1 134/1/1
f 161/2/1 134/2/1 160/2/1
f 162/2/1 40/2/1 135/2/1
f 162/1/1 135/1/1 161/1/1
f 163/2/1 148/2/1 147/2/1
f 163/2/1 150/2/1 149/2/1
f 163/2/1 149/2/1 148/2/1
f 164/1/1 139/1/1 150/1/1
f 164/2/1 150/2/1 163/2/1
f 165/2/1 151/2/1 139/2/1
f 165/1/1 139/1/1 164/1/1
f 166/1/1 152/1/1 151/1/1
f 166/2/1 151/2/1 165/2/1
f 167/2/1 153/2/1 152/2/1
f 167/1/1 152/1/1 166/1/1
f 167/2/1 155/2/1 154/2/1
f 167/2/1 154/2/1 153/2/1
f 168/2/1 155/2/1 167/2/1
f 169/2/1 155/2/1 168/2/1
f 170/1/1 142/1/1 155/1/1
f 170/2/1 155/2/1 169/2/1
f 171/2/1 157/2/1 156/2/1
f 171/1/1 142/1/1 170/1/1
f 171/2/1 158/2/1 157/2/1
f 171/2/1 156/2/1 142/2/1
f 172/2/1 158/2/1 171/2/1
f 173/2/1 158/2/1 172/2/1
f 174/1/1 159/1/1 158/1/1
f 174/2/1 158/2/1 173/2/1
f 175/2/1 161/2/1 160/2/1
f 175/1/1 159/1/1 174/1/1
f 175/2/1 160/2/1 159/2/1
f 175/2/1 162/2/1 161/2/1
f 176/2/1 163/2/1 147/2/1
f 176/2/1 147/2/1 39/2/1
f 177/2/1 163/2/1 176/2/1
f 178/1/1 164/1/1 163/1/1
f 178/2/1 163/2/1 177/2/1
f 179/2/1 166/2/1 165/2/1
f 179/1/1 164/1/1 178/1/1
f 179/2/1 165/2/1 164/2/1
f 179/2/1 167/2/1 166/2/1
f 180/1/1 168/1/1 167/1/1
f 180/2/1 167/2/1 179/2/1
f 181/2/1 169/2/1 168/2/1
f 181/1/1 168/1/1 180/1/1
f 182/1/1 170/1/1 169/1/1
f 182/2/1 169/2/1 181/2/1
f 183/2/1 172/2/1 171/2/1
f 183/1/1 170/1/1 182/1/1
f 183/2/1 171/2/1 170/2/1
f 184/1/1 173/1/1 172/1/1
f 184/2/1 172/2/1 183/2/1
f 185/2/1 174/2/1 173/2/1
f 185/1/1 173/1/1 184/1/1
f 185/2/1 175/2/1 174/2/1
f 186/2/1 162/2/1 175/2/1
f 186/2/1 175/2/1 185/2/1
f 186/2/1 40/2/1 162/2/1
f 187/2/1 40/2/1 186/2/1
f 188/2/1 184/2/1 183/2/1
f 188/2/1 186/2/1 185/2/1
f 188/2/1 182/2/1 181/2/1
f 188/2/1 179/2/1 178/2/1
f 188/2/1 180/2/1 179/2/1
f 188/2/1 183/2/1 182/2/1
f 188/2/1 181/2/1 180/2/1
f 188/2/1 185/2/1 184/2/1
f 188/2/1 178/2/1 177/2/1
f 189/2/1 186/2/1 188/2/1
f 190/2/1 186/2/1 189/2/1
f 191/2/1 186/2/1 190/2/1
f 192/2/1 186/2/1 191/2/1
f 193/2/1 186/2/1 192/2/1
f 194/2/1 186/2/1 193/2/1
f 195/2/1 188/2/1 177/2/1
f 196/2/1 188/2/1 195/2/1
f 197/2/1 188/2/1 196/2/1
f 198/3/1 189/3/1 188/3/1
f 198/2/1 188/2/1 197/2/1
f 199/3/1 189/3/1 198/3/1
f 200/3/1 191/3/1 190/3/1
f 201/2/1 192/2/1 191/2/1
f 201/3/1 191/3/1 200/3/1
f 202/2/1 192/2/1 201/2/1
f 203/2/1 192/2/1 202/2/1
f 204/2/1 192/2/1 203/2/1
f 205/3/1 194/3/1 193/3/1
f 206/2/1 186/2/1 194/2/1
f 206/3/1 194/3/1 205/3/1
f 207/2/1 195/2/1 177/2/1
f 208/2/1 195/2/1 207/2/1
f 209/2/1 197/2/1 196/2/1
f 210/2/1 197/2/1 209/2/1
f 211/3/1 198/3/1 197/3/1
f 211/2/1 197/2/1 210/2/1
f 212/3/1 198/3/1 211/3/1
f 213/3/1 202/3/1 201/3/1
f 214/2/1 203/2/1 202/2/1
f 214/3/1 202/3/1 213/3/1
f 215/3/1 204/3/1 203/3/1
f 215/2/1 203/2/1 214/2/1
f 216/3/1 204/3/1 215/3/1
f 217/2/1 186/2/1 206/2/1
f 218/2/1 186/2/1 217/2/1
f 219/2/1 186/2/1 218/2/1
f 220/3/1 208/3/1 207/3/1
f 221/3/1 208/3/1 220/3/1
f 222/3/1 210/3/1 209/3/1
f 223/2/1 211/2/1 210/2/1
f 223/3/1 210/3/1 222/3/1
f 224/2/1 211/2/1 223/2/1
f 225/3/1 215/3/1 214/3/1
f 226/3/1 215/3/1 225/3/1
f 227/2/1 217/2/1 206/2/1
f 228/2/1 217/2/1 227/2/1
f 229/3/1 219/3/1 218/3/1
f 230/3/1 219/3/1 229/3/1
f 231/3/1 224/3/1 223/3/1
f 232/3/1 224/3/1 231/3/1
f 233/3/1 228/3/1 227/3/1
f 234/3/1 228/3/1 233/3/1
f 235/2/2 236/2/2 237/2/2
f 237/2/2 236/2/2 238/2/2
f 238/2/2 236/2/2 239/2/2
f 239/2/2 236/2/2 240/2/2
f 237/4/2 238/4/2 241/4/2
f 238/3/2 239/3/2 241/3/2
f 239/4/2 240/4/2 242/4/2
f 241/3/2 239/3/2 242/3/2
f 237/4/2 241/4/2 243/4/2
f 241/4/2 242/4/2 243/4/2
f 242/4/2 240/4/2 244/4/2
f 243/4/2 242/4/2 244/4/2
f 248/4/3 246/4/3 245/4/3
f 249/4/3 246/4/3 248/4/3
f 250/2/3 248/2/3 247/2/3
f 250/2/3 249/2/3 248/2/3
f 251/4/3 246/4/3 249/4/3
f 251/2/3 249/2/3 250/2/3
f 252/4/3 246/4/3 251/4/3
f 255/4/3 254/4/3 253/4/3
f 256/4/3 254/4/3 255/4/3
f 257/4/3 254/4/3 256/4/3
f 260/4/3 259/4/3 258/4/3
f 261/4/3 259/4/3 260/4/3
f 262/4/3 259/4/3 261/4/3
f 265/4/3 264/4/3 263/4/3
f 266/4/3 264/4/3 265/4/3
f 269/4/3 268/4/3 267/4/3
f 270/4/3 268/4/3 269/4/3
f 273/4/3 272/4/3 271/4/3
f 274/4/3 272/4/3 273/4/3
f 277/4/3 276/4/3 275/4/3
f 278/4/3 276/4/3 277/4/3
f 279/4/3 276/4/3 278/4/3
f 282/4/3 281/4/3 280/4/3
f 283/4/3 281/4/3 282/4/3
f 284/4/3 281/4/3 283/4/3
f 287/4/3 286/4/3 285/4/3
f 288/4/3 286/4/3 287/4/3
f 289/4/3 286/4/3 288/4/3
f 290/4/4 291/4/4 292/4/4
f 292/4/4 291/4/4 293/4/4
f 293/4/4 291/4/4 294/4/4
f 295/4/4 296/4/4 297/4/4
f 297/4/4 296/4/4 298/4/4
f 298/4/4 296/4/4 299/4/4
f 300/4/4 301/4/4 302/4/4
f 302/4/4 301/4/4 303/4/4
f 304/4/4 305/4/4 306/4/4
f 306/4/4 305/4/4 307/4/4
f 308/4/4 309/4/4 310/4/4
f 310/4/4 309/4/4 311/4/4
f 312/4/4 313/4/4 314/4/4
f 314/4/4 313/4/4 315/4/4
f 316/4/4 317/4/4 318/4/4
f 318/4/4 317/4/4 319/4/4
f 320/4/4 321/4/4 322/4/4
f 322/4/4 321/4/4 323/4/4
f 323/4/4 321/4/4 324/4/4
f 325/4/4 326/4/4 327/4/4
f 327/4/4 326/4/4 328/4/4
f 329/4/4 330/4/4 332/4/4
f 332/4/4 330/4/4 333/4/4
f 331/2/4 332/2/4 334/2/4
f 332/2/4 333/2/4 334/2/4
f 333/4/4 330/4/4 335/4/4
f 334/2/4 333/2/4 335/2/4
f 335/4/4 330/4/4 336/4/4
f 339/2/5 338/2/5 337/2/5
f 340/2/5 338/2/5 339/2/5
f 343/4/5 342/4/5 341/4/5
f 344/4/5 342/4/5 343/4/5
f 347/4/5 346/4/5 345/4/5
f 348/4/5 346/4/5 347/4/5
f 351/4/5 350/4/5 349/4/5
f 352/4/5 350/4/5 351/4/5
f 355/4/5 354/4/5 353/4/5
f 356/4/5 354/4/5 355/4/5
f 359/4/5 358/4/5 357/4/5
f 360/4/5 358/4/5 359/4/5
f 363/4/5 362/4/5 361/4/5
f 364/4/5 362/4/5 363/4/5
f 367/4/5 366/4/5 365/4/5
f 368/4/5 366/4/5 367/4/5
f 371/4/5 370/4/5 369/4/5
f 372/4/5 370/4/5 371/4/5
f 375/4/5 374/4/5 373/4/5
f 376/4/5 374/4/5 375/4/5
f 379/4/5 378/4/5 377/4/5
f 380/4/5 378/4/5 379/4/5
f 383/4/5 382/4/5 381/4/5
f 384/4/5 382/4/5 383/4/5
f 387/4/5 386/4/5 385/4/5
f 388/4/5 386/4/5 387/4/5
f 391/4/5 390/4/5 389/4/5
f 392/4/5 390/4/5 391/4/5
f 395/4/5 394/4/5 393/4/5
f 396/4/5 394/4/5 395/4/5
f 399/4/5 398/4/5 397/4/5
f 400/4/5 398/4/5 399/4/5
f 403/4/5 402/4/5 401/4/5
f 404/4/5 402/4/5 403/4/5
f 407/4/5 406/4/5 405/4/5
f 408/4/5 406/4/5 407/4/5
f 411/4/5 410/4/5 409/4/5
f 412/4/5 410/4/5 411/4/5
f 413/4/6 414/4/6 415/4/6
f 415/4/6 414/4/6 416/4/6
